<svg width="56" height="60" viewBox="0 0 56 60" fill="none" xmlns="http://www.w3.org/2000/svg">
<path d="M28.6451 0H28.6905C29.2077 0.639861 29.8007 1.21421 30.4565 1.71036C31.526 2.5488 32.7091 3.21178 33.9217 3.82119C35.7224 4.72392 37.5406 5.59316 39.2692 6.63384C39.701 6.89502 40.1101 7.18968 40.5151 7.48836C40.5619 7.52318 40.61 7.55532 40.6582 7.58747C40.979 7.80043 41.1729 7.77364 41.4295 7.4763C41.5944 7.27897 41.7784 7.0986 41.979 6.93788C42.6314 6.43696 43.253 6.47044 43.86 7.03565C44.2971 7.43746 44.634 7.93168 44.9803 8.41117C46.8853 11.0457 48.4227 13.8905 49.8171 16.821C50.1606 17.5429 50.539 18.2488 50.8785 18.9734C51.0376 19.3122 51.2569 19.3578 51.555 19.1234C51.829 18.9091 52.0764 18.6613 52.3491 18.4457C52.8718 18.0345 52.9092 18.0438 53.1993 18.6091C54.1808 20.5176 54.8146 22.5863 55.0709 24.7179C55.3651 27.2225 55.0803 29.6735 54.4025 32.0843C54.2964 32.4239 54.2155 32.7708 54.1605 33.1223C54.1044 33.5523 54.2608 33.8603 54.6512 34.0438C54.7472 34.0868 54.8459 34.1235 54.9466 34.1537C55.1271 34.2114 55.2861 34.322 55.4031 34.4712C55.5201 34.6205 55.5898 34.8014 55.603 34.9908C55.6498 35.7944 55.4479 36.5391 55.1618 37.2677C53.9491 40.373 52.2894 43.2839 50.2355 45.9079C50.1018 46.082 49.8986 46.1757 49.7315 46.3097C48.9668 46.9231 48.4869 47.7267 48.162 48.6375C47.9027 49.3648 47.7489 50.1215 47.5618 50.8689C47.2529 52.1064 46.7289 53.2275 45.7984 54.1289C45.0598 54.8484 44.1327 55.3435 43.1247 55.5566C41.8264 55.8351 40.6518 56.5244 39.7745 57.5228C39.0801 58.319 38.2143 58.9468 37.2425 59.3591C36.0647 59.8412 34.8361 59.9189 33.5995 59.7421C32.2493 59.5506 30.9351 59.1849 29.617 58.8474C27.7869 58.3767 25.8607 58.4394 24.065 59.0282C22.7241 59.4602 21.3475 59.7712 19.9514 59.9577C19.2997 60.0433 18.6375 59.9987 18.0031 59.8265C17.3686 59.6543 16.7745 59.358 16.255 58.9546C15.5023 58.3652 14.8045 57.7116 14.0799 57.0902C13.3014 56.4073 12.37 55.9226 11.3647 55.6772C10.6724 55.5279 10.0214 55.2275 9.45834 54.7972C8.75819 54.2558 8.29673 53.4619 8.17227 52.5846C7.82603 50.4657 7.01856 48.5317 5.87821 46.7249C5.20977 45.6708 4.41568 44.7158 3.65633 43.726C2.23257 41.8751 1.29944 39.7776 0.659079 37.5409C0.406411 36.6569 0.207217 35.7609 0.0401085 34.8622C0.0307504 34.8126 0.0133687 34.7631 0 34.7135V34.1349C0.160424 33.567 0.58555 33.3514 1.12564 33.2898L1.19249 33.2817C1.75531 33.1987 1.92242 32.9643 1.79141 32.4071C1.71788 32.0977 1.62162 31.7937 1.52403 31.491C0.846241 29.4244 0.447853 27.3243 0.604267 25.1317C0.703195 23.7616 0.9064 22.4222 1.39035 21.1351C1.64749 20.4148 1.99904 19.732 2.43577 19.1046C2.83683 18.5488 3.23789 18.4537 3.86088 18.7537C4.06242 18.8468 4.25798 18.9524 4.44642 19.0698C4.61888 19.181 4.7138 19.1716 4.79133 18.968C4.94374 18.5823 5.12021 18.2059 5.2833 17.8242C6.06537 15.9906 6.82337 14.1463 7.81667 12.4118C8.61077 11.0256 9.48508 9.69696 10.5746 8.5277C11.399 7.62443 12.3437 6.83931 13.382 6.19454C13.9663 5.83693 14.2042 5.8838 14.6053 6.44634C14.8245 6.75439 15.0184 7.07985 15.2376 7.38389C15.2776 7.44277 15.33 7.49217 15.391 7.5286C15.4521 7.56503 15.5204 7.58762 15.5911 7.59477C15.6619 7.60192 15.7333 7.59346 15.8004 7.56998C15.8675 7.54651 15.9287 7.50859 15.9796 7.45889C16.279 7.18298 16.5678 6.89502 16.8659 6.61643C18.1768 5.39883 19.7084 4.44408 21.3779 3.80378C22.2428 3.46626 23.1519 3.28009 24.0289 2.98543C25.8216 2.37335 27.3951 1.44115 28.6451 0ZM53.067 26.7872C53.0811 26.1921 53.0471 25.5968 52.9654 25.0072C52.8607 24.1009 52.6636 23.2078 52.3772 22.3418C52.2127 21.8771 51.9761 21.782 51.5082 21.9615C51.1829 22.0873 50.8697 22.2424 50.5724 22.4249C50.412 22.5227 50.3358 22.4892 50.2569 22.3177C49.8558 21.4418 49.4548 20.5659 49.0283 19.702C47.7021 17.0099 46.2516 14.3807 44.9014 11.7006C44.5645 11.031 44.1821 10.3854 43.6407 9.85367C43.4602 9.67687 43.2691 9.46525 42.9937 9.54159C42.7183 9.61794 42.6702 9.90992 42.6194 10.1523C42.5231 10.6091 42.4496 11.0698 42.364 11.5292C42.352 11.5908 42.364 11.6779 42.2825 11.6953C42.2009 11.7127 42.1835 11.639 42.1488 11.5988C41.6929 11.1314 41.213 10.6908 40.7143 10.2702C38.6141 8.50091 36.2505 7.15887 33.7706 6.00569C32.9324 5.61593 32.0715 5.2744 31.2586 4.82973C30.412 4.38412 29.6339 3.81844 28.9485 3.15017C28.6371 2.83542 28.4526 2.80328 28.125 2.97606C26.3243 3.927 24.4807 4.79089 22.6171 5.60924C20.6868 6.4354 18.8857 7.53656 17.2697 8.87861C16.2683 9.72241 15.3192 10.6292 14.3045 11.4582C14.255 11.4984 14.2136 11.5841 14.1427 11.548C14.0719 11.5118 14.1066 11.4274 14.1066 11.3645C14.1066 10.897 14.1066 10.4269 14.1066 9.96349C14.1171 9.65031 14.0491 9.33948 13.9088 9.05943C13.8812 8.99589 13.8408 8.9388 13.79 8.89182C13.7391 8.84483 13.6791 8.80898 13.6137 8.78654C13.5483 8.76411 13.4789 8.75559 13.41 8.76152C13.3411 8.76746 13.2742 8.78772 13.2136 8.82102C13.0242 8.90616 12.8523 9.02609 12.7069 9.17461C12.3741 9.5105 12.0616 9.86607 11.7711 10.2394C9.80326 12.6623 8.32601 15.3785 7.03059 18.2019C6.41429 19.5412 5.86885 20.9141 5.34346 22.2923C5.27127 22.4798 5.20977 22.4557 5.07609 22.3378C4.88717 22.1476 4.68718 21.9687 4.47717 21.8021C3.87959 21.3467 3.56676 21.4405 3.29672 22.145C3.11908 22.6321 2.97568 23.1311 2.86758 23.6383C2.43845 25.4974 2.34353 27.3658 2.75529 29.2369C3.10822 30.8441 3.72318 32.3803 4.17237 33.9621C4.25793 34.2675 4.22718 34.3813 3.93307 34.4979C3.68575 34.5956 3.43041 34.6787 3.18977 34.7912C2.56278 35.0832 2.45316 35.2921 2.53872 35.9805C2.53872 36.0247 2.55342 36.0689 2.56278 36.1145C2.867 37.5598 3.34695 38.9623 3.99189 40.2906C4.89379 42.1213 6.07305 43.801 7.4878 45.2703C8.4987 46.3205 9.13423 47.6763 9.29524 49.1263C9.36377 49.7458 9.48634 50.3579 9.66155 50.9559C9.99309 52.0582 10.6695 52.8498 11.739 53.2998C12.204 53.5117 12.6915 53.6698 13.1922 53.7712C13.5652 53.821 13.9229 53.9516 14.2404 54.154C14.5579 54.3564 14.8275 54.6257 15.0304 54.9432C15.5799 55.7642 16.4141 56.2825 17.271 56.7607C17.515 56.91 17.7927 56.9951 18.0784 57.0079C18.364 57.0208 18.6482 56.9611 18.9046 56.8344C19.8889 56.3697 20.9053 55.9767 21.946 55.6584C24.1064 54.9849 26.374 54.725 28.6304 54.8923C30.5549 55.0568 32.4422 55.5195 34.2252 56.2638C34.8134 56.5049 35.3775 56.7995 35.9858 56.9991C37.3762 57.4424 38.5646 56.9991 39.3387 55.7669C39.5392 55.4454 39.6849 55.0972 39.8654 54.7637C40.1609 54.2186 40.5913 53.8529 41.2304 53.7806C41.3841 53.7632 41.5392 53.7512 41.6929 53.7297C43.1327 53.5181 44.2931 52.8672 45.0444 51.5787C45.4238 50.8975 45.6829 50.1557 45.8105 49.3862C46.0645 48.0308 46.5564 46.7771 47.4361 45.7029C47.8211 45.2342 48.2609 44.8123 48.6513 44.3475C49.6245 43.1863 50.4521 41.9193 51.2729 40.6509C51.9707 39.57 52.567 38.4356 52.9239 37.1913C53.0576 36.7225 53.2033 36.2538 53.1913 35.7542C53.1753 35.3644 52.9894 35.1729 52.6084 35.1367C52.5055 35.1274 52.4026 35.114 52.2996 35.0992C51.7542 35.0175 51.5643 34.7523 51.706 34.2179C51.8237 33.7733 51.9734 33.3407 52.1071 32.9C52.6886 30.9392 53.0924 28.961 53.067 26.7872Z" fill="#49C4A2"/>
<path d="M9.5345 30.8947C9.52851 30.4694 9.60659 30.0471 9.76421 29.6522C9.92184 29.2573 10.1559 28.8975 10.4529 28.5936C10.7885 28.2387 11.1575 27.9159 11.501 27.569C12.0545 27.0119 12.5999 26.448 13.1481 25.8855C13.1692 25.8644 13.1881 25.841 13.2042 25.8158C13.3379 25.6109 13.4422 25.3926 13.2978 25.1542C13.1534 24.9158 12.8967 24.9318 12.6614 24.9693C12.4882 25.0049 12.3214 25.0668 12.1668 25.1528L10.8299 25.8158C10.7778 25.8426 10.719 25.8948 10.6668 25.8573C10.6147 25.8198 10.6481 25.7475 10.6668 25.6913C11.0106 24.3927 11.5316 23.1479 12.2149 21.9919C12.5272 21.4762 12.9955 21.0737 13.5518 20.8428C14.5437 20.4155 15.5304 19.9735 16.5156 19.5289C16.8512 19.3775 17.1573 19.1806 17.2669 18.7922C17.2908 18.7331 17.3014 18.6695 17.2979 18.6059C17.2944 18.5423 17.277 18.4802 17.2469 18.4241C17.2168 18.3679 17.1747 18.3191 17.1236 18.2811C17.0726 18.2432 17.0138 18.2169 16.9514 18.2042C16.715 18.1429 16.4724 18.1088 16.2282 18.1024C16.0665 18.1032 15.9086 18.0536 15.7763 17.9605C15.6654 17.8721 15.6279 17.7904 15.7523 17.6725C16.5196 16.9533 17.2776 16.226 18.0584 15.5202C19.3832 14.3214 20.938 13.4709 22.47 12.5803C24.2414 11.5476 26.0194 10.5257 27.7948 9.49974L27.9499 9.41268C28.3309 9.21178 28.4579 9.24259 28.7092 9.59886C29.1677 10.2471 29.8041 10.6784 30.4939 11.032C32.1794 11.9012 33.7807 12.9253 35.2772 14.0911C36.7892 15.259 38.2357 16.5086 39.7116 17.7207C40.0044 17.9605 40.2985 18.1975 40.5913 18.4359C40.6341 18.4721 40.7049 18.5016 40.6822 18.5699C40.6648 18.6208 40.6006 18.6302 40.5485 18.6422C40.2364 18.7067 39.9176 18.7319 39.5993 18.7172C39.3761 18.7172 39.1434 18.7078 39.0499 18.9851C38.9563 19.2623 39.0418 19.4659 39.2945 19.6615C39.4517 19.7738 39.6202 19.8694 39.7972 19.9467C40.0182 20.0507 40.2252 20.1821 40.4135 20.3378C40.5521 20.4617 40.7165 20.5532 40.8947 20.6057C42.487 21.0155 43.5417 22.079 44.3532 23.4425C44.7743 24.151 45.138 24.889 45.5377 25.6069C45.5693 25.6572 45.5923 25.7124 45.6059 25.7703C45.624 25.8193 45.63 25.8719 45.6232 25.9237C45.6164 25.9756 45.5972 26.0249 45.5671 26.0676C45.4802 26.156 45.388 26.0609 45.3064 26.0248C44.7369 25.773 44.1714 25.5158 43.5899 25.2921C43.4955 25.25 43.3947 25.2242 43.2917 25.2158C43.2309 25.2064 43.1687 25.2123 43.1107 25.233C43.0528 25.2537 43.0009 25.2886 42.9597 25.3345C42.9186 25.3803 42.8895 25.4357 42.8751 25.4957C42.8607 25.5557 42.8615 25.6183 42.8773 25.6779C42.901 25.8171 42.9524 25.9501 43.0284 26.069C43.6721 27.1524 44.3787 28.1972 45.1446 29.1977C45.842 30.0389 46.2333 31.0925 46.2542 32.1858C46.2589 32.4825 46.232 32.7788 46.174 33.0698C46.0403 33.7167 46.0871 34.369 46.1192 35.0199C46.1558 35.4854 46.1522 35.9533 46.1085 36.4182C46.1085 36.4677 46.1165 36.536 46.0617 36.5521C46.0069 36.5682 45.9588 36.5093 45.9187 36.4704C45.6041 36.1561 45.2921 35.8409 44.9829 35.5248C44.8503 35.3843 44.6913 35.2714 44.515 35.1927C44.4385 35.1537 44.3533 35.1353 44.2676 35.1393C44.182 35.1432 44.0988 35.1693 44.0262 35.215C43.9536 35.2608 43.8941 35.3246 43.8535 35.4002C43.8128 35.4759 43.7925 35.5608 43.7944 35.6467C43.7723 36.3319 43.9096 37.0128 44.1955 37.6357C44.6701 38.7071 44.6727 39.7344 44.015 40.7256C43.8024 41.047 43.5551 41.3443 43.3145 41.6444C41.7022 43.6588 39.9999 45.5928 38.2076 47.4465C37.6047 48.0693 36.9844 48.6747 36.3842 49.2988C36.1521 49.5543 35.8569 49.7442 35.5284 49.8493C35.1999 49.9544 34.8495 49.971 34.5125 49.8975C33.0326 49.6443 31.5447 49.4381 30.0487 49.3028C28.7893 49.1805 27.5236 49.1358 26.2587 49.1689C24.5208 49.2224 22.8163 49.4997 21.1185 49.852C20.8888 49.9082 20.655 49.9458 20.4193 49.9645C20.1778 49.9782 19.9365 49.9341 19.7154 49.8358C19.4943 49.7375 19.2998 49.5879 19.1479 49.3992C17.2362 47.2036 15.3249 45.0084 13.4141 42.8136C12.9448 42.2779 12.4569 41.7421 12.116 41.0992C11.5117 39.9541 11.5585 38.8223 12.2256 37.7374C12.5625 37.187 12.6855 36.5843 12.7858 35.9708C12.8499 35.5811 12.6935 35.3253 12.3847 35.194C12.1026 35.0761 11.8152 35.1766 11.5732 35.4833C11.227 35.9199 10.9449 36.3994 10.6374 36.8615C10.5973 36.9204 10.5719 37.0182 10.4904 37.0128C10.4088 37.0075 10.3888 36.8977 10.3567 36.828C10.1735 36.3793 10.1949 35.8905 10.1321 35.4284C9.96096 34.1364 9.78895 32.8416 9.61605 31.5443C9.57349 31.3299 9.54623 31.1129 9.5345 30.8947ZM43.2129 31.5402C43.245 30.083 42.9549 28.2347 42.5284 26.7976C41.126 22.0723 38.2504 18.5806 33.8093 16.4256C31.5567 15.3327 29.1597 14.9697 26.6772 15.2201C24.6669 15.4347 22.7268 16.0826 20.9901 17.1194C18.3632 18.6543 16.2656 20.7182 14.7951 23.3996C13.6293 25.5351 12.9619 27.9077 12.8432 30.3388C12.7688 31.6805 12.8253 33.0262 13.0117 34.3569C13.5444 38.586 15.6837 42.4467 18.9848 45.1361C21.4045 47.1357 24.1772 48.2728 27.3229 48.4255C28.9612 48.502 30.5995 48.275 32.1556 47.7559C34.6623 46.9249 36.9229 45.4813 38.733 43.5556C39.7495 42.4868 40.6051 41.2753 41.2731 39.9594C42.5966 37.3959 43.2222 34.6623 43.2129 31.5402Z" fill="#49C4A2"/>
<path d="M14.0181 15.6434C13.9994 14.5089 14.478 13.6544 15.2507 12.9379C16.3786 11.8773 17.5693 10.8857 18.8161 9.9685C20.8119 8.50123 22.9982 7.31385 25.3146 6.43929C25.8494 6.2424 26.3133 5.92363 26.7959 5.63567C27.0601 5.47195 27.3379 5.33125 27.6261 5.21511C27.883 5.10608 28.1634 5.06413 28.4409 5.09317C28.7184 5.12222 28.9841 5.22132 29.213 5.38119C29.472 5.55294 29.7174 5.7446 29.9469 5.95444C30.4533 6.41126 31.0286 6.78508 31.6514 7.06209C34.3767 8.3215 36.9201 9.94334 39.2127 11.8838C39.7876 12.3633 40.3504 12.8535 40.8865 13.3772C41.7194 14.1902 42.0763 15.196 42.1431 16.3305C42.1578 16.5742 42.1699 16.8193 42.1806 17.0631C42.1806 17.1126 42.1993 17.1756 42.1405 17.197C42.0816 17.2184 42.0442 17.1702 42.0068 17.1381C41.4248 16.6345 40.8455 16.1295 40.2689 15.6233C38.9881 14.5022 37.7743 13.3035 36.4147 12.2749C34.7819 11.0172 33.0149 9.94494 31.1461 9.07782C30.3911 8.71451 29.6901 8.24798 29.0632 7.69159C29.0071 7.64471 28.9523 7.59381 28.8948 7.54827C28.36 7.12772 27.967 7.09825 27.3841 7.43845C26.6711 7.85633 25.9439 8.25456 25.2023 8.63316C24.0821 9.2064 22.9595 9.77519 21.8348 10.3395C20.3642 11.0735 19.0621 12.0418 17.8309 13.1187C16.5996 14.1955 15.494 15.409 14.3697 16.601C14.3229 16.6506 14.2922 16.751 14.2026 16.7189C14.1358 16.6948 14.1438 16.605 14.1291 16.5421C14.0548 16.2483 14.0175 15.9464 14.0181 15.6434Z" fill="#49C4A2"/>
<path d="M13.8126 51.9508C12.7591 51.9508 12.1402 51.415 11.6509 50.6744C11.048 49.7596 10.7752 48.7296 10.6536 47.6622C10.5319 46.5947 10.1643 45.6531 9.43971 44.8589C8.66636 43.9895 7.96528 43.0582 7.3435 42.0744C6.59742 40.915 5.955 39.6919 5.42375 38.4192C5.39434 38.3483 5.3128 38.2666 5.38365 38.1969C5.4545 38.1273 5.51734 38.2076 5.59086 38.2291C7.43307 38.8063 8.90228 39.8925 10.1269 41.3913C12.4797 44.2709 14.7979 47.1773 17.1615 50.0476C17.6187 50.6034 17.5344 50.8512 16.854 51.0681C16.1334 51.2932 15.4235 51.549 14.707 51.7861C14.4164 51.8761 14.1162 51.9314 13.8126 51.9508Z" fill="#49C4A2"/>
<path d="M40.7489 52.0098C40.1855 51.9913 39.6282 51.8865 39.0965 51.699C38.5617 51.5303 38.027 51.3401 37.4923 51.17C37.3078 51.111 37.3091 51.0508 37.4374 50.9222C39.6072 48.7498 41.5657 46.3938 43.4707 43.9883C44.6525 42.4963 45.8209 40.9922 47.0803 39.5684C47.9159 38.6451 48.9839 37.9637 50.1724 37.5956C50.3756 37.5286 50.3623 37.6344 50.3289 37.775C49.9278 39.5415 49.1223 41.1903 47.976 42.5914C47.4827 43.1954 46.9065 43.7218 46.3717 44.283C45.4854 45.2045 44.8383 46.2572 44.6124 47.5376C44.5683 47.7921 44.5576 48.0546 44.5001 48.3064C44.2469 49.4661 43.6395 50.518 42.7622 51.316C42.1994 51.8236 41.4988 52.0084 40.7489 52.0098Z" fill="#49C4A2"/>
<path d="M51.253 27.6883C51.2703 29.3397 50.9588 30.943 50.5484 32.5328C50.4147 33.0685 50.3065 33.6163 50.1821 34.1574C49.9067 35.3468 49.1514 36.0432 47.9469 36.2334C47.7824 36.2602 47.729 36.2053 47.7383 36.0499C47.8061 34.8677 47.8729 33.6851 47.9389 32.502C47.9763 31.8323 48.0418 31.1706 48.0311 30.5063C48.0004 28.5549 48.7597 26.9383 50.0551 25.5346C50.2757 25.2962 50.499 25.0578 50.7236 24.8261C50.8746 24.6707 50.904 24.6801 50.9522 24.8904C51.1637 25.8076 51.2647 26.747 51.253 27.6883Z" fill="#49C4A2"/>
<path d="M6.81937 24.1081C6.82842 23.5615 6.96581 23.0247 7.22043 22.5411C8.15624 20.5816 8.97707 18.5699 9.97571 16.6479C10.4516 15.7251 10.9891 14.8384 11.5492 13.9692C11.6999 13.7306 11.8887 13.5184 12.108 13.341C12.2885 13.1964 12.3299 13.2071 12.3687 13.4375C12.537 14.3304 12.4791 15.2514 12.2003 16.1162C11.5749 17.947 10.8565 19.7445 10.0479 21.5018C9.39819 22.9465 8.74446 24.3903 8.08672 25.8332C7.95304 26.1266 7.95304 26.1252 7.71908 25.9002C7.50129 25.6991 7.30952 25.4714 7.14824 25.2225C6.93144 24.8916 6.81704 24.5039 6.81937 24.1081Z" fill="#49C4A2"/>
<path d="M4.29268 25.8949C4.29268 25.5011 4.29268 25.189 4.29268 24.8783C4.29268 24.8086 4.25926 24.7162 4.33813 24.6761C4.41701 24.6359 4.46112 24.7122 4.51326 24.7484C5.58275 25.4837 6.33942 26.436 6.66562 27.7177C7.15277 29.6429 7.51008 31.5988 7.73511 33.5721C7.84206 34.5096 7.93297 35.4472 8.03323 36.3767C8.05863 36.6004 7.98912 36.8173 7.99045 37.0397C7.99115 37.0813 7.97855 37.1221 7.9545 37.156C7.93046 37.19 7.89622 37.2154 7.85677 37.2285C7.75115 37.2633 7.71639 37.1656 7.67094 37.1053C6.58899 35.6711 5.76474 34.0589 5.23517 32.3412C4.71656 30.6312 4.41386 28.8629 4.33412 27.0775C4.30872 26.6529 4.30605 26.2337 4.29268 25.8949Z" fill="#49C4A2"/>
<path d="M44.007 14.655C44.0047 14.6225 44.0047 14.5898 44.007 14.5573C44.0271 14.43 43.9375 14.2425 44.0659 14.1889C44.1728 14.1434 44.257 14.3229 44.3453 14.4059C44.8292 14.8693 45.0792 15.4774 45.3439 16.0721C46.3573 18.3606 47.3688 20.6504 48.3786 22.9416C48.4267 23.0501 48.4655 23.1626 48.5123 23.2698C48.7944 23.8658 48.7035 24.3895 48.2142 24.8395C48.007 25.0284 47.8011 25.2199 47.5939 25.4114C47.5016 25.4971 47.4321 25.5212 47.3586 25.3793C46.0538 22.8345 44.8185 20.2522 44.2838 17.4047C44.1191 16.4969 44.0265 15.5775 44.007 14.655Z" fill="#49C4A2"/>
<path d="M21.1945 54.0603L20.5688 52.1625C20.49 51.92 20.5154 51.8812 20.7493 51.8196C20.769 51.8087 20.7911 51.803 20.8136 51.803C20.8361 51.803 20.8582 51.8086 20.878 51.8194C20.8977 51.8302 20.9144 51.8459 20.9265 51.8649C20.9386 51.8838 20.9457 51.9056 20.9472 51.9281C21.2359 52.8076 21.526 53.6871 21.8175 54.5666C21.8402 54.6376 21.8683 54.722 21.7747 54.7595C21.641 54.8144 21.5006 54.9095 21.3429 54.7796C20.9659 54.4675 20.5822 54.1661 20.2012 53.8608L19.3683 53.1911C19.2988 53.2835 19.3603 53.3491 19.3804 53.4107C19.5635 53.9826 19.7453 54.5545 19.9405 55.1211C20.0007 55.2979 19.9539 55.3729 19.7828 55.4291C19.6116 55.4854 19.5635 55.4077 19.5154 55.2671C19.248 54.442 18.9806 53.6197 18.7133 52.7946C18.6825 52.6995 18.5796 52.5777 18.724 52.5013C18.8683 52.425 19.0074 52.3567 19.1731 52.4933C19.7734 52.9862 20.383 53.4697 20.9886 53.9545C21.0448 54.0001 21.1049 54.0416 21.1637 54.0885L21.1945 54.0603Z" fill="#49C4A2"/>
<path d="M31.2049 51.6816C31.1835 52.1263 31.0204 52.4464 30.6153 52.5964C30.4817 52.6432 30.4629 52.7062 30.5057 52.8308C30.6167 53.1535 30.7223 53.4777 30.8172 53.8045C30.8426 53.8902 30.9509 53.996 30.8266 54.0723C30.7343 54.1326 30.4522 54.0081 30.4135 53.8982C30.352 53.7241 30.2985 53.546 30.2437 53.3625C30.2111 53.2797 30.186 53.194 30.1688 53.1067C30.126 52.7049 29.8734 52.5709 29.5071 52.5495C29.3868 52.5428 29.3279 52.5642 29.3066 52.6834C29.2558 52.9674 29.1902 53.25 29.1448 53.5353C29.1181 53.6973 29.0472 53.7455 28.8868 53.7107C28.7263 53.6759 28.6715 53.6304 28.7063 53.4576C28.8814 52.5709 29.0472 51.6829 29.213 50.7936C29.2384 50.6597 29.2932 50.6007 29.4389 50.6329C29.7651 50.7039 30.0953 50.7494 30.4188 50.8298C30.9148 50.9691 31.2049 51.2972 31.2049 51.6816ZM30.0873 52.3044C30.4883 52.3044 30.6875 52.1423 30.7464 51.8236C30.7616 51.758 30.7636 51.6901 30.7525 51.6238C30.7413 51.5574 30.7171 51.494 30.6813 51.437C30.6455 51.3801 30.5988 51.3309 30.5439 51.2922C30.4889 51.2534 30.4269 51.226 30.3613 51.2115C30.1728 51.1525 29.9736 51.1231 29.7785 51.0775C29.757 51.0707 29.7342 51.069 29.7119 51.0724C29.6896 51.0758 29.6684 51.0844 29.6499 51.0973C29.6314 51.1102 29.6162 51.1273 29.6053 51.1471C29.5945 51.1669 29.5883 51.1889 29.5873 51.2115C29.5365 51.4793 29.4897 51.7472 29.4335 52.0151C29.4135 52.1169 29.4469 52.1745 29.5445 52.1932L30.0873 52.3044Z" fill="#49C4A2"/>
<path d="M24.5994 54.0589C24.0646 54.0589 23.7157 53.8808 23.4951 53.5232C23.3194 53.2575 23.2002 52.9584 23.145 52.6446C23.0898 52.3307 23.0998 52.0088 23.1743 51.699C23.3 51.19 23.6943 50.9636 24.1823 50.8846C24.6462 50.8096 25.0325 50.9395 25.2906 51.3547C25.3387 51.4338 25.4483 51.5235 25.3374 51.6226C25.2765 51.6669 25.201 51.6862 25.1264 51.6765C25.0518 51.6668 24.9838 51.6288 24.9363 51.5704C24.7438 51.2262 24.4416 51.1873 24.09 51.2717C23.7385 51.3561 23.5553 51.628 23.5553 52.0258C23.5449 52.4352 23.6339 52.841 23.8147 53.2084C23.8768 53.3295 23.9654 53.4349 24.0739 53.5169C24.1825 53.5988 24.308 53.6552 24.4413 53.6817C24.5746 53.7082 24.7122 53.7043 24.8437 53.6701C24.9752 53.6359 25.0974 53.5724 25.201 53.4843C25.24 53.456 25.2707 53.4177 25.2897 53.3733C25.3088 53.329 25.3155 53.2804 25.3093 53.2325C25.3093 53.1964 25.2999 53.1589 25.2932 53.1227C25.2103 52.6686 25.2103 52.6686 24.7585 52.7624C24.6395 52.7865 24.5058 52.8508 24.463 52.6526C24.4363 52.532 24.4537 52.4544 24.5967 52.4276C24.8641 52.378 25.1168 52.3177 25.3775 52.2615C25.5018 52.2334 25.5713 52.2615 25.594 52.4048C25.6281 52.6394 25.6772 52.8716 25.7411 53.0999C25.824 53.3678 25.7197 53.5459 25.5285 53.7C25.2674 53.9199 24.9404 54.0462 24.5994 54.0589Z" fill="#49C4A2"/>
<path d="M27.5325 53.2821C27.7398 53.2821 27.947 53.2821 28.1542 53.2821C28.2879 53.2821 28.336 53.3491 28.3387 53.4736C28.3413 53.5982 28.2745 53.6531 28.1395 53.6491C27.6127 53.6357 27.0847 53.6692 26.558 53.6987C26.3989 53.7067 26.3387 53.6437 26.336 53.4897C26.324 52.8816 26.2839 52.2736 26.2852 51.6642C26.2852 51.3883 26.2652 51.1137 26.2491 50.8378C26.2398 50.6556 26.2879 50.5699 26.4818 50.5699C26.9537 50.5699 27.4269 50.5391 27.8988 50.5324C28.0325 50.5324 28.2197 50.4574 28.217 50.7119C28.2143 50.9664 28.0232 50.8873 27.8935 50.8954C27.5686 50.9168 27.2438 50.9275 26.9189 50.9329C26.7745 50.9329 26.6957 50.9838 26.705 51.1418C26.717 51.3414 26.7211 51.5436 26.7318 51.7405C26.7318 51.8584 26.7932 51.8972 26.9202 51.8892C27.2384 51.8704 27.5566 51.8744 27.8734 51.8651C27.9951 51.8651 28.0726 51.8945 28.0766 52.0352C28.0807 52.1758 28.0125 52.2307 27.8748 52.2347C27.5726 52.2428 27.2705 52.2629 26.967 52.2682C26.808 52.2682 26.7384 52.3285 26.7478 52.4932C26.7598 52.7075 26.7478 52.9232 26.7652 53.1375C26.7652 53.2714 26.8253 53.3303 26.9791 53.3129C27.1634 53.3015 27.3482 53.3015 27.5325 53.3129V53.2821Z" fill="#49C4A2"/>
<path d="M34.6409 54.5679C34.6409 54.8143 34.6409 54.9924 34.6409 55.1692C34.6409 55.2523 34.6984 55.4023 34.5446 55.3916C34.3909 55.3809 34.2331 55.3661 34.2305 55.1532C34.2305 54.9764 34.2211 54.7982 34.2305 54.6174C34.2391 54.5588 34.2247 54.4991 34.1902 54.4509C34.1558 54.4027 34.1041 54.3697 34.046 54.3589C33.7585 54.2638 33.4738 54.1594 33.1917 54.0495C33.1422 54.0238 33.0848 54.018 33.0312 54.0331C32.9776 54.0483 32.9317 54.0834 32.903 54.1312C32.8094 54.2544 32.7091 54.3737 32.6102 54.4929C32.5828 54.5272 32.5487 54.5556 32.51 54.5764C32.4713 54.5972 32.4288 54.61 32.3851 54.6138C32.3414 54.6177 32.2973 54.6127 32.2556 54.599C32.2138 54.5854 32.1753 54.5634 32.1423 54.5344C32.05 54.4527 32.1423 54.4004 32.1797 54.3522C32.5487 53.9183 32.9194 53.4852 33.292 53.053C33.5513 52.7503 33.8147 52.449 34.0714 52.1423C34.1056 52.088 34.1572 52.0468 34.2177 52.0255C34.2782 52.0042 34.3442 52.004 34.4048 52.0249C34.4655 52.0459 34.5173 52.0867 34.5519 52.1408C34.5865 52.1949 34.6018 52.2591 34.5954 52.3231C34.5901 53.0972 34.6008 53.8674 34.6409 54.5679ZM34.193 52.6928L34.1289 52.6713C33.9658 52.8655 33.8053 53.0611 33.6409 53.2539C33.2545 53.708 33.2532 53.7107 33.8147 53.9022C34.2224 54.0361 34.1917 54.0977 34.193 53.6343C34.1944 53.3062 34.193 52.9981 34.193 52.6861V52.6928Z" fill="#49C4A2"/>
<path d="M32.5407 51.4941C32.5314 51.5316 32.522 51.5677 32.5113 51.6026C32.2439 52.4584 31.9766 53.3129 31.7226 54.1715C31.6664 54.3549 31.5768 54.375 31.4111 54.3215C31.2453 54.2679 31.2587 54.1715 31.2988 54.0456C31.5055 53.375 31.7123 52.7053 31.9191 52.0365C31.9819 51.8316 32.0528 51.6267 32.1103 51.4218C32.1136 51.3994 32.1226 51.3782 32.1363 51.3602C32.15 51.3422 32.1681 51.328 32.1888 51.3189C32.2095 51.3098 32.2321 51.3061 32.2546 51.3082C32.2771 51.3102 32.2988 51.318 32.3175 51.3307C32.4057 51.3601 32.534 51.3494 32.5407 51.4941Z" fill="#49C4A2"/>
<path d="M22.9392 54.3401C22.9392 54.4901 22.8055 54.4674 22.7065 54.5022C22.5902 54.5464 22.5314 54.5022 22.4993 54.379C22.3402 53.8098 22.1771 53.2405 22.0167 52.6713C21.9258 52.3512 21.8376 52.0298 21.7427 51.711C21.6959 51.5529 21.7908 51.5221 21.9084 51.4886C22.0261 51.4552 22.1197 51.4297 22.1651 51.5891C22.4138 52.4798 22.6691 53.3691 22.9218 54.2584C22.9271 54.2799 22.9311 54.3013 22.9392 54.3401Z" fill="#49C4A2"/>
<path d="M28.2387 21.2058C29.3832 21.1691 30.5224 21.3763 31.5809 21.8139C32.7079 22.2938 33.7057 23.0341 34.4926 23.9743C35.4856 25.1279 36.2632 26.4514 36.788 27.8812C37.177 28.9406 37.3227 30.0496 37.3561 31.1747C37.4243 33.1194 37.058 34.9758 36.1209 36.6808C34.6717 39.3193 32.5448 41.1341 29.5261 41.6846C26.9099 42.1628 24.5329 41.5172 22.4982 39.8095C20.3793 38.0255 19.1975 35.691 18.8218 32.9587C18.394 29.8393 19.1935 27.0347 21.1279 24.5636C22.66 22.6041 24.6733 21.4898 27.1558 21.2487C27.3403 21.2313 27.5248 21.2165 27.7093 21.2085C27.8938 21.2005 28.0609 21.2058 28.2387 21.2058ZM33.4605 29.0879C33.4154 29.0412 33.3542 29.0134 33.2894 29.0103C32.7707 28.8888 32.252 28.7687 31.7333 28.65C30.8536 28.4491 29.9686 28.2669 29.0943 28.0446C28.5408 27.9107 28.4071 27.6629 28.482 27.095C28.6398 25.8896 28.7494 24.6667 28.8483 23.4492C28.8563 23.3541 28.9018 23.2336 28.7628 23.1814C28.6237 23.1291 28.5836 23.2457 28.5248 23.326C27.839 24.2729 27.1438 25.2132 26.5195 26.2043C26.0476 26.9503 25.4326 27.1807 24.573 26.9785C24.2709 26.9075 23.9754 26.8084 23.6786 26.7106C22.9434 26.4816 22.2081 26.2565 21.434 26.2003C21.152 26.1789 21.148 26.1923 21.2562 26.4561C21.602 27.3391 21.9938 28.2033 22.43 29.0451C22.7309 29.5627 22.8582 30.1633 22.7932 30.7587C22.7282 31.3542 22.4744 31.913 22.0691 32.3533C21.4862 33.0458 20.9113 33.7395 20.4742 34.5378C20.4341 34.6128 20.3632 34.6784 20.3806 34.7883C20.4093 34.7885 20.438 34.7858 20.4662 34.7802C21.2148 34.5231 21.9755 34.3007 22.7041 33.99C22.9685 33.8563 23.2476 33.7538 23.5356 33.6846C23.6703 33.6554 23.8105 33.6651 23.9399 33.7125C24.0694 33.7599 24.1827 33.8431 24.2669 33.9525C24.376 34.0838 24.4619 34.2328 24.5209 34.3931C25.1091 35.9388 25.843 37.4201 26.5262 38.9242C26.5449 38.9657 26.5462 39.03 26.6385 39.026C26.7223 38.8315 26.7898 38.6303 26.8403 38.4246C27.1251 36.7076 27.4566 34.9972 27.6572 33.2681C27.7708 32.2904 28.1919 31.5564 29.1277 31.1693C29.9833 30.8184 30.83 30.4443 31.6678 30.0469C32.2747 29.7576 32.871 29.4362 33.4605 29.0879ZM33.7733 25.7395C33.7579 26.0417 33.7614 26.3446 33.784 26.6463C33.784 28.0607 33.8241 29.4764 33.7078 30.8894C33.6085 32.2396 33.2451 33.5571 32.6383 34.7668C31.8255 36.3741 30.6076 37.5942 29.097 38.5438C28.1906 39.1131 27.2053 39.5229 26.2401 39.9716C26.1452 40.0158 25.9727 40.0171 25.9821 40.139C25.9914 40.2609 26.1438 40.2729 26.2494 40.3198C27.0235 40.6788 27.8296 40.6734 28.6384 40.4886C30.2734 40.1149 31.6303 39.2376 32.8429 38.1152C33.9217 37.1161 34.7987 35.9723 35.3161 34.578C36.0914 32.5478 36.0914 30.3024 35.3161 28.2723C34.9741 27.3321 34.4497 26.4691 33.7733 25.7329V25.7395Z" fill="#49C4A2"/>
<path d="M28.0516 42.8257C28.3519 42.8247 28.6495 42.8833 28.9272 42.9981C29.2048 43.113 29.4569 43.2819 29.669 43.495C29.8811 43.7081 30.0489 43.9612 30.1628 44.2396C30.2766 44.5181 30.3342 44.8164 30.3323 45.1174C30.3336 45.5728 30.1998 46.0183 29.948 46.3975C29.6961 46.7766 29.3375 47.0722 28.9176 47.2468C28.4978 47.4214 28.0356 47.4671 27.5898 47.378C27.144 47.289 26.7346 47.0693 26.4137 46.7468C26.0927 46.4243 25.8746 46.0136 25.7871 45.5667C25.6995 45.1198 25.7465 44.6569 25.922 44.2368C26.0975 43.8166 26.3936 43.4582 26.7727 43.207C27.1519 42.9558 27.597 42.8231 28.0516 42.8257Z" fill="#49C4A2"/>
<path d="M17.4181 28.5347L16.3312 27.7726C15.9623 27.5141 15.5906 27.257 15.2203 26.9985C15.0545 26.8833 15.0291 26.448 15.1789 26.3167C15.2323 26.2698 15.2898 26.2899 15.3473 26.3033C16.3406 26.5324 17.3352 26.7654 18.3312 26.9904C18.513 27.0306 18.4983 27.1391 18.4649 27.2717C18.4315 27.4043 18.3927 27.5181 18.1975 27.4726C17.5411 27.3199 16.886 27.1699 16.2363 26.9918C16.1411 26.9606 16.0404 26.9501 15.9409 26.9609L16.9235 27.6534C17.2804 27.9052 17.6374 28.1583 17.993 28.4075C18.0959 28.4798 18.1668 28.5414 18.1266 28.6981C18.1188 28.7579 18.0911 28.8134 18.0479 28.8554C18.0047 28.8975 17.9486 28.9237 17.8887 28.9298C17.0932 29.053 16.2978 29.1843 15.5024 29.3115C15.4637 29.3149 15.4278 29.3332 15.4021 29.3624C15.8767 29.4615 16.3526 29.5593 16.8272 29.6611C17.108 29.7227 17.3874 29.795 17.6708 29.8526C17.894 29.8968 17.8205 30.0428 17.8045 30.1767C17.7884 30.3107 17.7162 30.3763 17.5612 30.3402C16.5808 30.108 15.6004 29.8808 14.62 29.6584C14.4503 29.6196 14.4128 29.5432 14.4503 29.3758C14.5358 29.0008 14.5291 29.0035 14.9182 28.9445C15.6922 28.828 16.4663 28.7048 17.2403 28.5843C17.2817 28.5749 17.3232 28.5588 17.4181 28.5347Z" fill="#49C4A2"/>
<path d="M19.3339 41.7301L20.6707 41.035C20.9782 40.8729 21.2884 40.7162 21.5932 40.5475C21.6395 40.5113 21.6972 40.493 21.7559 40.4959C21.8146 40.4989 21.8702 40.5229 21.9127 40.5635C21.9606 40.5978 21.995 40.6477 22.0099 40.7048C22.0248 40.7618 22.0192 40.8223 21.9942 40.8756C21.7496 41.6149 21.5103 42.3489 21.2696 43.0936C21.2419 43.1651 21.2313 43.2422 21.2389 43.3186C21.3659 43.1606 21.4929 43.0025 21.6226 42.8458C21.9889 42.3998 22.3632 41.9592 22.7201 41.5065C22.8431 41.3497 22.9207 41.4234 23.0249 41.5065C23.1292 41.5895 23.2215 41.6578 23.0931 41.8065C22.5397 42.4534 21.9942 43.107 21.4461 43.7579C21.3311 43.8919 21.2135 44.0258 21.1025 44.1597C21.037 44.2401 20.9755 44.2495 20.898 44.1785C20.844 44.1295 20.7863 44.0847 20.7255 44.0445C20.5758 43.9468 20.5638 43.8302 20.6199 43.6642C20.8766 42.9141 21.1186 42.1587 21.3659 41.406C21.3913 41.3297 21.414 41.252 21.4448 41.1529C21.3161 41.1614 21.1928 41.208 21.0905 41.2868C20.4301 41.635 19.7723 41.9886 19.1119 42.3382C18.9959 42.389 18.8651 42.3941 18.7455 42.3527C18.6258 42.3113 18.5262 42.2262 18.4662 42.1145C18.4221 42.0234 18.4956 41.9806 18.5411 41.9257C19.1881 41.1542 19.8405 40.3867 20.4822 39.6126C20.5999 39.4706 20.6814 39.5135 20.791 39.6126C20.9007 39.7117 20.9795 39.7827 20.8459 39.9327C20.3927 40.4417 19.9515 40.96 19.509 41.4756C19.4278 41.5422 19.367 41.6304 19.3339 41.7301Z" fill="#49C4A2"/>
<path d="M32.1652 18.2967L31.3029 20.3178C31.1933 20.5736 31.1852 20.5682 30.9272 20.4664C30.7534 20.3981 30.7828 20.3044 30.839 20.1718C31.224 19.2811 31.601 18.3864 31.9874 17.4931C32.0261 17.4033 32.0301 17.2359 32.1892 17.2828C32.3483 17.3297 32.5261 17.3471 32.5609 17.5734C32.6397 18.0717 32.7347 18.5659 32.8282 19.0628C32.9058 19.5034 32.9833 19.9441 33.1036 20.3901C33.3309 19.8624 33.5577 19.3342 33.7841 18.8056C33.8563 18.6355 33.9392 18.4681 33.9993 18.294C34.0595 18.1199 34.133 18.0918 34.2988 18.1601C34.4646 18.2284 34.5261 18.286 34.4432 18.4721C34.1424 19.1498 33.859 19.8343 33.5675 20.5147C33.4753 20.733 33.3857 20.9526 33.2841 21.1669C33.2453 21.2526 33.2387 21.4107 33.097 21.3692C32.9552 21.3276 32.7547 21.3076 32.7173 21.0852C32.605 20.4155 32.486 19.7566 32.3684 19.0936C32.3216 18.8257 32.2721 18.5579 32.224 18.29L32.1652 18.2967Z" fill="#49C4A2"/>
<path d="M27.6223 18.7882C27.6223 19.6575 27.1289 20.2347 26.3175 20.3687C26.0915 20.4062 25.8603 20.4182 25.6397 20.4745C25.4191 20.5307 25.3429 20.4397 25.3148 20.2294C25.2132 19.4901 25.0982 18.7561 24.99 18.0128C24.9552 17.7784 24.9285 17.544 24.8844 17.3109C24.859 17.177 24.8964 17.098 25.0368 17.0779C25.3523 17.0337 25.6637 16.9721 25.9806 16.9439C26.2889 16.9146 26.5983 16.9881 26.8606 17.153C27.1229 17.318 27.3234 17.5651 27.4311 17.8561C27.5415 18.1553 27.606 18.4696 27.6223 18.7882ZM27.1263 18.8204C27.1171 18.5441 27.0676 18.2706 26.9792 18.0087C26.9177 17.8167 26.7961 17.6497 26.6323 17.5324C26.4685 17.4152 26.2714 17.3539 26.0702 17.3578C25.9017 17.3578 25.7346 17.4047 25.5648 17.4248C25.4405 17.4395 25.4137 17.4998 25.4311 17.6217C25.5452 18.361 25.6548 19.1008 25.76 19.841C25.7747 19.9441 25.8148 19.9977 25.9271 20.003C26.6423 20.0379 27.1303 19.5838 27.1263 18.8204Z" fill="#49C4A2"/>
<path d="M40.0776 29.033C40.4574 28.9985 40.8369 29.1016 41.1471 29.3237C41.3272 29.4556 41.471 29.6312 41.5649 29.834C41.6588 30.0367 41.6998 30.2601 41.684 30.483C41.6682 30.706 41.5962 30.9213 41.4747 31.1088C41.3533 31.2963 41.1862 31.4499 40.9894 31.555C40.6811 31.7195 40.3415 31.8165 39.9931 31.8396C39.6446 31.8627 39.2952 31.8114 38.968 31.689C38.4333 31.4961 38.1846 31.0702 38.1512 30.5237C38.129 30.2928 38.172 30.0602 38.2753 29.8526C38.3786 29.6449 38.538 29.4705 38.7354 29.3491C39.1338 29.092 39.5723 29.0317 40.0776 29.033ZM40.0562 29.5313C39.6552 29.5313 39.2715 29.5607 38.9279 29.7871C38.6231 29.988 38.5509 30.28 38.5897 30.6215C38.599 30.7601 38.6504 30.8926 38.7368 31.0013C38.8233 31.1099 38.9408 31.1896 39.0736 31.2296C39.3688 31.3285 39.6809 31.3669 39.9913 31.3422C40.3016 31.3176 40.6038 31.2306 40.8797 31.0863C41.1805 30.9336 41.2808 30.6496 41.2541 30.3161C41.2509 30.1744 41.2079 30.0364 41.1301 29.918C41.0523 29.7996 40.9429 29.7055 40.8142 29.6464C40.5753 29.5446 40.3145 29.505 40.0562 29.5313Z" fill="#49C4A2"/>
<path d="M17.0999 36.0285C17.1171 36.2858 17.1 36.5444 17.0491 36.7972C16.8592 37.4937 16.1133 37.7094 15.5785 37.2191C15.1561 36.8281 14.9996 36.1249 15.2296 35.6481C15.2899 35.5124 15.3816 35.3931 15.497 35.2998C15.7643 35.0922 15.8392 35.1163 15.9261 35.4338C15.9423 35.4741 15.9426 35.519 15.927 35.5596C15.9113 35.6001 15.8809 35.6332 15.8419 35.6521C15.4127 35.9481 15.4555 36.662 15.9114 36.9245C15.9698 36.9607 16.0357 36.9831 16.1041 36.99C16.1725 36.9969 16.2415 36.988 16.306 36.9641C16.3705 36.9402 16.4286 36.9019 16.4761 36.8521C16.5235 36.8023 16.559 36.7423 16.5798 36.6767C16.6299 36.4827 16.6476 36.2818 16.632 36.082C16.632 35.7807 16.5972 35.4753 16.6988 35.1793C16.7416 35.0407 16.8179 34.9148 16.9209 34.8128C17.0239 34.7108 17.1505 34.6358 17.2894 34.5946C17.4283 34.5534 17.5751 34.5472 17.717 34.5765C17.8588 34.6059 17.9913 34.6698 18.1025 34.7628C18.5544 35.1284 18.7643 35.9575 18.5357 36.4905C18.4637 36.68 18.3274 36.8379 18.1506 36.9365C18.0771 36.974 17.9742 37.0544 17.9287 36.9258C17.8833 36.7972 17.7322 36.6673 17.8913 36.524C17.9889 36.4429 18.068 36.3417 18.1231 36.2274C18.1783 36.113 18.2083 35.9881 18.2111 35.8611C18.2139 35.734 18.1894 35.6079 18.1393 35.4912C18.0892 35.3745 18.0146 35.27 17.9207 35.1847C17.8622 35.1248 17.7889 35.0816 17.7084 35.0594C17.6278 35.0372 17.5428 35.0367 17.462 35.0581C17.3811 35.0794 17.3074 35.1219 17.2483 35.181C17.1891 35.2402 17.1467 35.314 17.1253 35.3949C17.0678 35.6266 17.1132 35.849 17.0999 36.0285Z" fill="#49C4A2"/>
<path d="M39.1182 27.2691C39.0988 27.0098 39.1228 26.749 39.1891 26.4976C39.3856 25.8092 40.1463 25.6069 40.6596 26.1052C41.173 26.6034 41.2318 27.5209 40.7585 27.9669C40.7296 28.0004 40.6952 28.0289 40.6569 28.0513C40.5607 28.0941 40.4711 28.2468 40.3535 28.1062C40.3215 28.075 40.297 28.0371 40.2816 27.9951C40.2663 27.9532 40.2605 27.9083 40.2647 27.8639C40.269 27.8194 40.2831 27.7765 40.3061 27.7382C40.3291 27.6999 40.3604 27.6673 40.3976 27.6428C40.665 27.4753 40.7372 27.2128 40.6275 26.8391C40.5299 26.5016 40.3374 26.3275 40.0674 26.3315C39.7973 26.3355 39.6663 26.4655 39.6142 26.7333C39.5715 27.0169 39.5576 27.3041 39.5727 27.5905C39.5776 27.7916 39.5402 27.9915 39.4631 28.1772C39.4069 28.3131 39.3174 28.4327 39.2027 28.5247C39.0881 28.6167 38.9521 28.6781 38.8074 28.7034C38.6627 28.7287 38.5139 28.7169 38.375 28.6691C38.236 28.6214 38.1114 28.5392 38.0126 28.4303C37.8242 28.2337 37.6896 27.9917 37.622 27.7277C37.5543 27.4638 37.5558 27.1868 37.6263 26.9235C37.6543 26.8001 37.7075 26.6838 37.7825 26.5819C37.8575 26.4801 37.9527 26.3948 38.0621 26.3315C38.141 26.2846 38.2519 26.1976 38.3 26.3436C38.3482 26.4896 38.4899 26.6034 38.3281 26.7454C38.2313 26.8212 38.1515 26.9165 38.0939 27.0252C38.0363 27.1339 38.0022 27.2535 37.9937 27.3763C37.9853 27.4991 38.0027 27.6223 38.0449 27.7379C38.0871 27.8535 38.1531 27.9589 38.2386 28.0472C38.2956 28.1182 38.3716 28.1714 38.4576 28.2007C38.5437 28.2301 38.6363 28.2344 38.7247 28.213C38.8131 28.1917 38.8936 28.1457 38.9568 28.0803C39.0201 28.0149 39.0636 27.9328 39.0821 27.8437C39.1133 27.6538 39.1254 27.4613 39.1182 27.2691Z" fill="#49C4A2"/>
<path d="M30.1545 20.3325C29.5944 20.2857 29.0356 20.2361 28.4754 20.1986C28.319 20.1866 28.2776 20.1075 28.2909 19.9615C28.38 18.9668 28.4638 17.9713 28.5423 16.9748C28.5556 16.8141 28.6171 16.7498 28.7775 16.7645C29.3595 16.8163 29.9388 16.8649 30.5155 16.9105C30.6919 16.9252 30.7374 17.019 30.716 17.1784C30.6946 17.3377 30.5823 17.3391 30.4566 17.3257C30.0556 17.2868 29.6545 17.2587 29.2642 17.2199C29.0797 17.2011 28.9901 17.2587 28.9968 17.4596C29.0035 17.6605 28.9714 17.844 28.954 18.0355C28.9393 18.1963 29.0142 18.2606 29.1706 18.2713C29.5101 18.294 29.8484 18.3329 30.1879 18.3543C30.3443 18.365 30.3845 18.44 30.3791 18.5847C30.3791 18.7494 30.2828 18.7829 30.1438 18.7695C29.8136 18.7401 29.4754 18.7173 29.1505 18.6825C28.9741 18.665 28.8832 18.7334 28.8751 18.9101C28.8604 19.1392 28.8404 19.3682 28.8217 19.5972C28.8141 19.6261 28.8136 19.6564 28.8204 19.6854C28.8271 19.7145 28.8408 19.7415 28.8603 19.764C28.8798 19.7866 28.9045 19.8041 28.9322 19.8149C28.96 19.8257 28.9899 19.8296 29.0195 19.8263C29.4032 19.8531 29.7869 19.8839 30.1692 19.9214C30.3029 19.9348 30.5021 19.8651 30.4954 20.1316C30.4887 20.3982 30.3123 20.3392 30.1545 20.3325Z" fill="#49C4A2"/>
<path d="M35.6958 23.7171C35.6958 23.3648 35.7613 23.1345 35.9391 22.9483C35.9979 22.8867 36.0728 22.7581 36.1677 22.8813C36.2626 23.0045 36.4231 23.0769 36.3014 23.2563C36.2302 23.3569 36.1807 23.4712 36.1563 23.5921C36.1319 23.7129 36.133 23.8375 36.1596 23.9579C36.1861 24.0783 36.2376 24.1917 36.3106 24.291C36.3836 24.3902 36.4766 24.473 36.5835 24.5341C36.6579 24.5863 36.7455 24.6164 36.8362 24.6211C36.9269 24.6257 37.0171 24.6047 37.0965 24.5604C37.1759 24.5161 37.2412 24.4503 37.285 24.3706C37.3288 24.2909 37.3493 24.2004 37.3442 24.1095C37.3235 23.8732 37.2714 23.6408 37.1891 23.4184C37.11 23.1865 37.0702 22.9429 37.0714 22.6978C37.0729 22.5802 37.099 22.4641 37.1481 22.3572C37.1972 22.2503 37.2681 22.155 37.3564 22.0773C37.4446 21.9996 37.5481 21.9414 37.6602 21.9064C37.7724 21.8714 37.8906 21.8604 38.0072 21.8741C38.7104 21.9331 39.4364 23.0019 38.9898 23.7238C38.9632 23.7768 38.9299 23.8263 38.8909 23.8711C38.8174 23.9381 38.7572 24.0787 38.6235 23.9649C38.4658 23.8309 38.4324 23.6769 38.534 23.5631C38.8615 23.176 38.6222 22.4594 38.1329 22.3456C38.0614 22.3248 37.986 22.3216 37.913 22.3361C37.8401 22.3507 37.7716 22.3826 37.7136 22.4293C37.6555 22.4759 37.6095 22.5358 37.5794 22.604C37.5493 22.6722 37.536 22.7466 37.5407 22.8211C37.5593 23.0504 37.6106 23.2759 37.6931 23.4907C37.79 23.7469 37.8306 24.021 37.8121 24.2943C37.8006 24.4418 37.7516 24.5838 37.6697 24.7068C37.5878 24.8298 37.4757 24.9297 37.3443 24.9969C37.2128 25.0641 37.0663 25.0964 36.9188 25.0906C36.7713 25.0849 36.6278 25.0413 36.5019 24.964C36.2767 24.8373 36.0856 24.6576 35.9451 24.4403C35.8047 24.2231 35.7191 23.9749 35.6958 23.7171Z" fill="#49C4A2"/>
<path d="M17.1801 23.4238C17.1734 23.504 17.1879 23.5844 17.2222 23.6571C17.2565 23.7298 17.3094 23.7921 17.3755 23.8378C17.4415 23.8834 17.5184 23.9108 17.5984 23.9172C17.6785 23.9235 17.7587 23.9086 17.8311 23.8738C18.0282 23.7845 18.2089 23.6627 18.3659 23.5136C18.5583 23.3391 18.7789 23.1987 19.0182 23.0984C19.1613 23.0377 19.3179 23.0164 19.4719 23.0366C19.626 23.0569 19.7718 23.1179 19.8944 23.2134C20.017 23.309 20.112 23.4356 20.1695 23.5802C20.227 23.7247 20.2449 23.8821 20.2214 24.0359C20.1506 24.6252 19.6372 25.2172 19.0931 25.3378C18.9197 25.3819 18.7368 25.3702 18.5704 25.3043C18.4888 25.2708 18.3498 25.2453 18.4247 25.1128C18.4875 25.0029 18.5116 24.8194 18.7041 24.8449C19.2549 24.9293 19.5931 24.7324 19.7736 24.206C19.8163 24.1084 19.8266 23.9996 19.803 23.8956C19.7794 23.7917 19.7231 23.6981 19.6425 23.6285C19.5618 23.559 19.4611 23.5172 19.355 23.5093C19.2489 23.5014 19.143 23.5277 19.053 23.5845C18.8437 23.7108 18.6468 23.8565 18.4648 24.0198C18.2987 24.1568 18.1107 24.2646 17.9086 24.3386C17.7761 24.3872 17.6336 24.4021 17.4939 24.3821C17.3541 24.3621 17.2215 24.3078 17.1078 24.224C16.9941 24.1402 16.9029 24.0295 16.8423 23.9018C16.7816 23.7741 16.7535 23.6334 16.7603 23.4921C16.7828 23.2067 16.8865 22.9337 17.0589 22.7054C17.2314 22.4771 17.4655 22.303 17.7335 22.2037C17.9399 22.1372 18.1632 22.1467 18.3632 22.2305C18.4394 22.2626 18.5945 22.28 18.5049 22.4153C18.4314 22.5265 18.4193 22.7421 18.1854 22.6724C18.0685 22.6348 17.9444 22.6258 17.8234 22.646C17.7023 22.6662 17.5878 22.7151 17.4895 22.7886C17.3911 22.8621 17.3117 22.9581 17.2579 23.0686C17.2041 23.1791 17.1774 23.3009 17.1801 23.4238Z" fill="#49C4A2"/>
<path d="M23.2241 21.3585C23.0267 21.3664 22.8314 21.3164 22.662 21.2145C22.4927 21.1127 22.3567 20.9635 22.2709 20.7852C21.9353 20.1156 21.6185 19.4379 21.2856 18.7668C21.1947 18.582 21.3311 18.5552 21.4394 18.499C21.5476 18.4427 21.6466 18.3999 21.7228 18.5619C22.0205 19.2003 22.3239 19.8356 22.6332 20.4678C22.8645 20.9433 23.2321 21.0598 23.7027 20.8187C24.1037 20.6058 24.2294 20.2482 24.0195 19.8035C23.7334 19.1941 23.4353 18.5887 23.1412 17.982C23.0222 17.7355 23.0423 17.698 23.3043 17.6003C23.3247 17.5878 23.3477 17.5801 23.3715 17.5779C23.3953 17.5757 23.4193 17.579 23.4416 17.5876C23.4639 17.5961 23.484 17.6097 23.5003 17.6272C23.5166 17.6447 23.5287 17.6657 23.5356 17.6887C23.8564 18.365 24.1933 19.028 24.4968 19.7178C24.7134 20.2066 24.5596 20.6928 24.1305 21.0196C23.8721 21.2265 23.5546 21.3453 23.2241 21.3585Z" fill="#49C4A2"/>
<path d="M18.7443 37.3572C19.2711 37.3572 19.759 37.7684 19.9475 38.3764C20.1039 38.8867 19.9408 39.3327 19.4662 39.6395C18.8713 40.0265 18.2631 40.3962 17.6722 40.7846C17.505 40.8944 17.4436 40.8127 17.3593 40.6895C17.2751 40.5663 17.2751 40.4645 17.4275 40.3707C18.001 40.0185 18.5665 39.6528 19.136 39.2992C19.6708 38.9631 19.7216 38.4407 19.2697 38.0094C19.0224 37.7751 18.735 37.7416 18.4168 37.9478C17.8192 38.3175 17.2243 38.6912 16.6361 39.0756C16.4703 39.1841 16.3861 39.1559 16.2885 38.9912C16.1909 38.8265 16.2123 38.7622 16.3607 38.6711C16.965 38.2987 17.5639 37.9157 18.1641 37.538C18.3364 37.4236 18.5377 37.3609 18.7443 37.3572Z" fill="#49C4A2"/>
<path d="M36.6045 38.4675C36.404 38.4675 36.2864 38.3068 36.3639 38.1635C36.65 37.6277 36.9428 37.092 37.2275 36.5562C37.2917 36.4357 37.3612 36.4223 37.4762 36.4852C38.3799 36.9781 39.2845 37.4692 40.19 37.9585C40.211 37.9652 40.23 37.977 40.2454 37.9928C40.2608 38.0086 40.272 38.028 40.2781 38.0492C40.2841 38.0704 40.2849 38.0928 40.2803 38.1143C40.2756 38.1359 40.2658 38.156 40.2515 38.1728C39.9547 38.7193 39.6593 39.2671 39.3652 39.8162C39.2943 39.9502 39.2154 39.8899 39.1286 39.8444C39.0417 39.7988 38.9548 39.7359 39.0283 39.6033C39.2328 39.2349 39.4293 38.8586 39.6352 38.4929C39.7288 38.3309 39.7328 38.2331 39.543 38.1501C39.3481 38.0593 39.1588 37.9568 38.9761 37.8434C38.8612 37.7737 38.7943 37.7898 38.7315 37.9117C38.5671 38.2264 38.3893 38.5345 38.2262 38.8492C38.1553 38.9831 38.0818 39.0327 37.9307 38.9537C37.7797 38.8747 37.797 38.7903 37.8639 38.6684C38.0337 38.3644 38.1914 38.0536 38.3665 37.7523C38.4521 37.6063 38.416 37.5286 38.2743 37.4576C38.0497 37.3438 37.8278 37.2259 37.6059 37.0973C37.4722 37.0156 37.4013 37.0545 37.3385 37.1897C37.1446 37.5648 36.9374 37.9344 36.7382 38.3054C36.6995 38.3778 36.6674 38.4568 36.6045 38.4675Z" fill="#49C4A2"/>
<path d="M41.5269 33.9766C41.5269 34.7079 41.1058 35.182 40.4066 35.257C40.3183 35.2664 40.1833 35.3079 40.1793 35.1646C40.1753 35.0213 40.1446 34.8566 40.3224 34.7802C40.3658 34.7672 40.4107 34.76 40.456 34.7588C40.6132 34.7519 40.7631 34.6906 40.8801 34.5853C40.9971 34.48 41.0741 34.3373 41.0977 34.1815C41.1753 33.8146 41.0657 33.477 40.7395 33.2962C40.2221 32.9957 39.6111 32.9001 39.0269 33.0284C38.6459 33.1141 38.4721 33.3726 38.4334 33.8146C38.4066 34.132 38.535 34.3329 38.8772 34.511C38.9165 34.5358 38.9503 34.5683 38.9767 34.6066C39.003 34.6448 39.0214 34.6881 39.0306 34.7336C39.0399 34.7792 39.0398 34.8261 39.0304 34.8717C39.0211 34.9172 39.0026 34.9604 38.9761 34.9986C38.9267 35.0588 38.8692 35.0334 38.8144 35.0133C38.6265 34.9526 38.4575 34.8444 38.3236 34.6992C38.1896 34.554 38.0953 34.3766 38.0497 34.1842C37.8318 33.2976 38.3946 32.5341 39.3424 32.4832C39.8553 32.4473 40.3683 32.5519 40.8264 32.7859C41.0482 32.8919 41.2334 33.0619 41.3582 33.274C41.483 33.4862 41.5418 33.7308 41.5269 33.9766Z" fill="#49C4A2"/>
<path d="M34.3348 42.8686C34.3869 43.3052 34.4363 43.7472 34.4912 44.1878C34.5313 44.4986 34.4912 44.5655 34.2238 44.7236C34.1035 44.7905 34.0687 44.7504 34.0567 44.6298C34.0005 44.0043 33.923 43.3789 33.8882 42.7547C33.8775 42.503 33.7913 42.2603 33.6409 42.0583C33.4992 41.8694 33.3735 41.6565 33.2399 41.4703C33.1235 41.3096 33.2399 41.252 33.3455 41.1783C33.4511 41.1046 33.5527 41.0296 33.6316 41.1984C33.9751 41.9203 34.5674 42.3489 35.2839 42.6503C35.6101 42.7842 35.9163 42.9717 36.2358 43.1284C36.3695 43.1954 36.4042 43.2382 36.2598 43.3467C36.0687 43.4914 35.9109 43.5302 35.685 43.3856C35.3173 43.1525 34.9216 42.965 34.5393 42.7534C34.3936 42.6677 34.308 42.6663 34.3348 42.8686Z" fill="#49C4A2"/>
<path d="M20.4405 19.5356C20.4377 19.5627 20.4288 19.5889 20.4144 19.6121C20.4001 19.6353 20.3806 19.6549 20.3576 19.6695C20.1959 19.8222 20.0381 19.9789 19.867 20.1209C19.724 20.2401 19.7026 20.3285 19.8429 20.4785C20.4231 21.0906 20.9913 21.7147 21.5635 22.3348C21.6 22.368 21.6267 22.4106 21.6406 22.458C21.6545 22.5054 21.6551 22.5557 21.6422 22.6034C21.6293 22.651 21.6036 22.6942 21.5677 22.7282C21.5319 22.7621 21.4874 22.7854 21.4392 22.7956C21.3442 22.8264 21.3055 22.7541 21.256 22.7032C20.8175 22.2299 20.3804 21.7567 19.9445 21.2834C19.7788 21.104 19.6077 20.9312 19.4486 20.7477C19.3536 20.6365 19.2841 20.662 19.1932 20.7477C19.0181 20.9165 18.8309 21.0745 18.6585 21.2459C18.5542 21.3504 18.486 21.3156 18.4045 21.2232C18.3229 21.1308 18.2708 21.0665 18.3844 20.9647C18.9579 20.4397 19.5274 19.9106 20.0983 19.3842C20.1477 19.3387 20.2026 19.2878 20.2721 19.3454C20.3426 19.3943 20.4004 19.4596 20.4405 19.5356Z" fill="#49C4A2"/>
<path d="M35.586 19.0186C35.6528 19.0271 35.7139 19.0606 35.7571 19.1123C36.3079 19.6159 36.8596 20.1195 37.4122 20.6231C37.5111 20.7115 37.5726 20.7812 37.4509 20.9111C37.3293 21.041 37.2517 21.0169 37.1421 20.9111C36.9804 20.749 36.8012 20.6044 36.6368 20.445C36.5459 20.3566 36.4844 20.3365 36.3868 20.445C35.8106 21.0905 35.2264 21.7294 34.6489 22.3737C34.4777 22.5638 34.2946 22.5371 34.1729 22.3027C34.1261 22.2102 34.1943 22.1687 34.2411 22.1138C34.82 21.4709 35.3948 20.8227 35.979 20.1905C36.1248 20.0351 36.1127 19.9467 35.959 19.8235C35.8052 19.7003 35.6275 19.5275 35.4657 19.3762C35.4216 19.3346 35.3414 19.2945 35.3988 19.2141C35.4465 19.1362 35.5104 19.0696 35.586 19.0186Z" fill="#49C4A2"/>
<path d="M38.7291 40.7055C38.7291 40.7711 38.689 40.8046 38.6556 40.8394C38.1516 41.4006 37.6462 41.9605 37.1463 42.5257C37.0393 42.6462 36.9618 42.6596 36.8388 42.5431C36.7158 42.4266 36.7759 42.3462 36.8642 42.2525C37.0112 42.0971 37.1463 41.9283 37.2987 41.7783C37.415 41.6645 37.419 41.5855 37.2987 41.473C36.7639 40.9975 36.2292 40.5126 35.6944 40.0318C35.5955 39.9434 35.4966 39.8537 35.399 39.7639C35.1998 39.5764 35.2118 39.4719 35.4324 39.3018C35.5313 39.2242 35.5821 39.3018 35.6383 39.3514C36.0393 39.705 36.431 40.0626 36.8268 40.4229C37.0941 40.66 37.3615 40.8903 37.6168 41.1368C37.7345 41.2506 37.7987 41.2319 37.8936 41.114C38.042 40.9292 38.2064 40.7591 38.3682 40.5783C38.4109 40.5314 38.4564 40.4617 38.5339 40.5046C38.6189 40.5487 38.6874 40.6192 38.7291 40.7055Z" fill="#49C4A2"/>
<path d="M18.0381 33.8131C18.0541 33.9324 17.9913 33.9712 17.8857 33.9846C16.8817 34.1185 15.8804 34.2525 14.8737 34.3864C14.6825 34.4118 14.6291 34.3154 14.6063 34.1533C14.5836 33.9913 14.6317 33.9069 14.8069 33.8855C15.609 33.785 16.4191 33.6765 17.2253 33.5694C17.2774 33.5694 17.3282 33.548 17.379 33.5453C17.5301 33.5372 17.5782 33.4729 17.5528 33.3149C17.49 32.9278 17.4539 32.5354 17.3924 32.1483C17.3656 31.9702 17.4325 31.9086 17.5969 31.8898C17.7613 31.8711 17.7948 31.9595 17.8108 32.0961C17.883 32.6693 17.9619 33.2412 18.0381 33.8131Z" fill="#49C4A2"/>
<path d="M15.6159 30.9951C16.3512 30.9951 17.0865 30.9951 17.8218 30.9951C17.8264 30.9954 17.8308 30.9973 17.8343 31.0004C17.8377 31.0036 17.8399 31.0079 17.8405 31.0125C17.9301 31.6621 17.791 31.642 16.1026 31.0674C16.0329 31.0427 15.9569 31.0427 15.8873 31.0674C14.4462 31.6273 14.3981 31.4853 14.394 31.1893C14.394 31.0286 14.4341 30.9415 14.6186 30.9469C14.9515 30.9576 15.2871 30.9469 15.6159 30.9469V30.9951Z" fill="#49C4A2"/>
<path d="M37.7399 35.34L37.9177 35.3962L40.6409 36.3338C40.9256 36.4315 40.9336 36.4677 40.82 36.7463C40.7545 36.907 40.6556 36.8575 40.5526 36.8213L38.058 35.9708L37.7653 35.8704C37.7165 35.8547 37.6728 35.8262 37.6388 35.7879C37.6047 35.7496 37.5816 35.7028 37.5717 35.6524C37.5619 35.6021 37.5657 35.55 37.5828 35.5016C37.6 35.4533 37.6297 35.4104 37.669 35.3775C37.691 35.3621 37.7148 35.3495 37.7399 35.34Z" fill="#49C4A2"/>
</svg>
